<?xml version="1.0" encoding="UTF-8"?>
<svg width="847px" height="481px" viewBox="0 0 847 481" version="1.1" xmlns="http://www.w3.org/2000/svg" xmlns:xlink="http://www.w3.org/1999/xlink">
    <!-- Generator: Sketch 47.1 (45422) - http://www.bohemiancoding.com/sketch -->
    <title>nepal copy</title>
    <desc>Created with Sketch.</desc>
    <defs></defs>
    <g id="Page-1" stroke="none" stroke-width="1" fill="none" fill-rule="evenodd">
        <g id="nepal-copy">
            <path d="M140.824029,0 C135.684466,0 132.600728,3.08333333 132.600728,8.22222222 C132.600728,13.3611111 135.684466,16.4444444 140.824029,16.4444444 C145.963592,16.4444444 149.04733,13.3611111 149.04733,8.22222222 C149.04733,3.08333333 145.963592,0 140.824029,0 L140.824029,0 Z M174.745146,0 C169.605583,0 166.521845,3.08333333 166.521845,8.22222222 C166.521845,13.3611111 169.605583,16.4444444 174.745146,16.4444444 C179.884709,16.4444444 182.968447,13.3611111 182.968447,8.22222222 C182.968447,3.08333333 178.856796,0 174.745146,0 L174.745146,0 Z M207.63835,0 C202.498786,0 199.415049,3.08333333 199.415049,8.22222222 C199.415049,13.3611111 202.498786,16.4444444 207.63835,16.4444444 C211.75,16.4444444 215.86165,13.3611111 215.86165,8.22222222 C215.86165,3.08333333 211.75,0 207.63835,0 L207.63835,0 Z M75.0376214,32.8888889 C69.8980583,32.8888889 66.8143204,37 66.8143204,41.1111111 C66.8143204,45.2222222 70.9259709,49.3333333 75.0376214,49.3333333 C79.1492718,49.3333333 83.2609223,45.2222222 83.2609223,41.1111111 C83.2609223,37 79.1492718,32.8888889 75.0376214,32.8888889 L75.0376214,32.8888889 Z M107.930825,32.8888889 C103.819175,32.8888889 99.7075243,37 99.7075243,41.1111111 C99.7075243,45.2222222 103.819175,49.3333333 107.930825,49.3333333 C113.070388,49.3333333 116.154126,45.2222222 116.154126,41.1111111 C116.154126,37 112.042476,32.8888889 107.930825,32.8888889 L107.930825,32.8888889 Z M140.824029,32.8888889 C135.684466,32.8888889 132.600728,37 132.600728,41.1111111 C132.600728,45.2222222 135.684466,49.3333333 140.824029,49.3333333 C145.963592,49.3333333 149.04733,45.2222222 149.04733,41.1111111 C149.04733,37 145.963592,32.8888889 140.824029,32.8888889 L140.824029,32.8888889 Z M174.745146,32.8888889 C169.605583,32.8888889 166.521845,37 166.521845,41.1111111 C166.521845,45.2222222 169.605583,49.3333333 174.745146,49.3333333 C179.884709,49.3333333 182.968447,45.2222222 182.968447,41.1111111 C181.940534,37 178.856796,32.8888889 174.745146,32.8888889 L174.745146,32.8888889 Z M207.63835,32.8888889 C202.498786,32.8888889 199.415049,37 199.415049,41.1111111 C199.415049,45.2222222 202.498786,49.3333333 207.63835,49.3333333 C211.75,49.3333333 215.86165,45.2222222 215.86165,41.1111111 C215.86165,37 211.75,32.8888889 207.63835,32.8888889 L207.63835,32.8888889 Z M240.531553,32.8888889 C236.419903,32.8888889 232.308252,37 232.308252,41.1111111 C232.308252,45.2222222 236.419903,49.3333333 240.531553,49.3333333 C245.671117,49.3333333 249.782767,45.2222222 249.782767,41.1111111 C248.754854,37 244.643204,32.8888889 240.531553,32.8888889 L240.531553,32.8888889 Z M273.424757,65.7777778 C268.285194,65.7777778 265.201456,69.8888889 265.201456,74 C265.201456,79.1388889 268.285194,82.2222222 273.424757,82.2222222 C278.56432,82.2222222 281.648058,78.1111111 281.648058,74 C282.675971,69.8888889 278.56432,65.7777778 273.424757,65.7777778 L273.424757,65.7777778 Z M41.1165049,65.7777778 C35.9769417,65.7777778 32.8932039,69.8888889 32.8932039,74 C32.8932039,79.1388889 37.0048544,82.2222222 41.1165049,82.2222222 C45.2281553,82.2222222 49.3398058,79.1388889 49.3398058,74 C49.3398058,69.8888889 46.256068,65.7777778 41.1165049,65.7777778 L41.1165049,65.7777778 Z M75.0376214,65.7777778 C69.8980583,65.7777778 66.8143204,69.8888889 66.8143204,74 C66.8143204,79.1388889 70.9259709,82.2222222 75.0376214,82.2222222 C79.1492718,82.2222222 83.2609223,79.1388889 83.2609223,74 C83.2609223,69.8888889 79.1492718,65.7777778 75.0376214,65.7777778 L75.0376214,65.7777778 Z M107.930825,65.7777778 C103.819175,65.7777778 99.7075243,69.8888889 99.7075243,74 C99.7075243,79.1388889 103.819175,82.2222222 107.930825,82.2222222 C113.070388,82.2222222 116.154126,79.1388889 116.154126,74 C116.154126,69.8888889 112.042476,65.7777778 107.930825,65.7777778 L107.930825,65.7777778 Z M140.824029,65.7777778 C135.684466,65.7777778 132.600728,69.8888889 132.600728,74 C132.600728,79.1388889 135.684466,82.2222222 140.824029,82.2222222 C145.963592,82.2222222 149.04733,79.1388889 149.04733,74 C149.04733,69.8888889 145.963592,65.7777778 140.824029,65.7777778 L140.824029,65.7777778 Z M174.745146,65.7777778 C169.605583,65.7777778 166.521845,69.8888889 166.521845,74 C166.521845,79.1388889 169.605583,82.2222222 174.745146,82.2222222 C179.884709,82.2222222 182.968447,79.1388889 182.968447,74 C181.940534,69.8888889 178.856796,65.7777778 174.745146,65.7777778 L174.745146,65.7777778 Z M207.63835,65.7777778 C202.498786,65.7777778 199.415049,69.8888889 199.415049,74 C199.415049,79.1388889 202.498786,82.2222222 207.63835,82.2222222 C211.75,82.2222222 215.86165,79.1388889 215.86165,74 C215.86165,69.8888889 211.75,65.7777778 207.63835,65.7777778 L207.63835,65.7777778 Z M240.531553,65.7777778 C236.419903,65.7777778 232.308252,69.8888889 232.308252,74 C232.308252,79.1388889 236.419903,82.2222222 240.531553,82.2222222 C245.671117,82.2222222 249.782767,79.1388889 249.782767,74 C248.754854,69.8888889 244.643204,65.7777778 240.531553,65.7777778 L240.531553,65.7777778 Z M273.424757,99.6944444 C268.285194,99.6944444 265.201456,103.805556 265.201456,107.916667 C265.201456,112.027778 268.285194,116.138889 273.424757,116.138889 C278.56432,116.138889 281.648058,113.055556 281.648058,107.916667 C281.648058,102.777778 278.56432,99.6944444 273.424757,99.6944444 L273.424757,99.6944444 Z M41.1165049,99.6944444 C35.9769417,99.6944444 32.8932039,103.805556 32.8932039,107.916667 C32.8932039,113.055556 37.0048544,116.138889 41.1165049,116.138889 C45.2281553,116.138889 49.3398058,113.055556 49.3398058,107.916667 C49.3398058,103.805556 46.256068,99.6944444 41.1165049,99.6944444 L41.1165049,99.6944444 Z M75.0376214,99.6944444 C69.8980583,99.6944444 66.8143204,103.805556 66.8143204,107.916667 C66.8143204,113.055556 70.9259709,116.138889 75.0376214,116.138889 C79.1492718,116.138889 83.2609223,113.055556 83.2609223,107.916667 C83.2609223,103.805556 79.1492718,99.6944444 75.0376214,99.6944444 L75.0376214,99.6944444 Z M107.930825,99.6944444 C103.819175,99.6944444 99.7075243,103.805556 99.7075243,107.916667 C99.7075243,113.055556 103.819175,116.138889 107.930825,116.138889 C113.070388,116.138889 116.154126,113.055556 116.154126,107.916667 C116.154126,103.805556 112.042476,99.6944444 107.930825,99.6944444 L107.930825,99.6944444 Z M140.824029,99.6944444 C135.684466,99.6944444 132.600728,103.805556 132.600728,107.916667 C132.600728,113.055556 135.684466,116.138889 140.824029,116.138889 C145.963592,116.138889 149.04733,113.055556 149.04733,107.916667 C149.04733,103.805556 145.963592,99.6944444 140.824029,99.6944444 L140.824029,99.6944444 Z M174.745146,99.6944444 C169.605583,99.6944444 166.521845,103.805556 166.521845,107.916667 C166.521845,113.055556 169.605583,116.138889 174.745146,116.138889 C179.884709,116.138889 182.968447,113.055556 182.968447,107.916667 C181.940534,103.805556 178.856796,99.6944444 174.745146,99.6944444 L174.745146,99.6944444 Z M207.63835,99.6944444 C202.498786,99.6944444 199.415049,103.805556 199.415049,107.916667 C199.415049,113.055556 202.498786,116.138889 207.63835,116.138889 C211.75,116.138889 215.86165,113.055556 215.86165,107.916667 C215.86165,103.805556 211.75,99.6944444 207.63835,99.6944444 L207.63835,99.6944444 Z M240.531553,99.6944444 C236.419903,99.6944444 232.308252,103.805556 232.308252,107.916667 C232.308252,113.055556 236.419903,116.138889 240.531553,116.138889 C245.671117,116.138889 249.782767,113.055556 249.782767,107.916667 C248.754854,103.805556 244.643204,99.6944444 240.531553,99.6944444 L240.531553,99.6944444 Z M307.345874,99.6944444 C302.206311,99.6944444 299.122573,102.777778 299.122573,107.916667 C299.122573,113.055556 303.234223,116.138889 307.345874,116.138889 C312.485437,116.138889 315.569175,113.055556 315.569175,107.916667 C315.569175,103.805556 312.485437,99.6944444 307.345874,99.6944444 L307.345874,99.6944444 Z M340.239078,99.6944444 C335.099515,99.6944444 332.015777,102.777778 332.015777,107.916667 C332.015777,113.055556 336.127427,116.138889 340.239078,116.138889 C344.350728,116.138889 348.462379,113.055556 348.462379,107.916667 C348.462379,103.805556 344.350728,99.6944444 340.239078,99.6944444 L340.239078,99.6944444 Z M273.424757,132.583333 C268.285194,132.583333 265.201456,136.694444 265.201456,140.805556 C265.201456,144.916667 268.285194,149.027778 273.424757,149.027778 C278.56432,149.027778 281.648058,145.944444 281.648058,140.805556 C281.648058,135.666667 278.56432,132.583333 273.424757,132.583333 L273.424757,132.583333 Z M41.1165049,132.583333 C35.9769417,132.583333 32.8932039,136.694444 32.8932039,140.805556 C32.8932039,144.916667 37.0048544,149.027778 41.1165049,149.027778 C45.2281553,149.027778 49.3398058,144.916667 49.3398058,140.805556 C49.3398058,136.694444 46.256068,132.583333 41.1165049,132.583333 L41.1165049,132.583333 Z M75.0376214,132.583333 C69.8980583,132.583333 66.8143204,136.694444 66.8143204,140.805556 C66.8143204,144.916667 70.9259709,149.027778 75.0376214,149.027778 C79.1492718,149.027778 83.2609223,144.916667 83.2609223,140.805556 C83.2609223,136.694444 79.1492718,132.583333 75.0376214,132.583333 L75.0376214,132.583333 Z M107.930825,132.583333 C103.819175,132.583333 99.7075243,136.694444 99.7075243,140.805556 C99.7075243,144.916667 103.819175,149.027778 107.930825,149.027778 C113.070388,149.027778 116.154126,144.916667 116.154126,140.805556 C116.154126,136.694444 112.042476,132.583333 107.930825,132.583333 L107.930825,132.583333 Z M140.824029,132.583333 C135.684466,132.583333 132.600728,136.694444 132.600728,140.805556 C132.600728,144.916667 135.684466,149.027778 140.824029,149.027778 C145.963592,149.027778 149.04733,144.916667 149.04733,140.805556 C149.04733,136.694444 145.963592,132.583333 140.824029,132.583333 L140.824029,132.583333 Z M174.745146,132.583333 C169.605583,132.583333 166.521845,136.694444 166.521845,140.805556 C166.521845,144.916667 169.605583,149.027778 174.745146,149.027778 C179.884709,149.027778 182.968447,144.916667 182.968447,140.805556 C181.940534,136.694444 178.856796,132.583333 174.745146,132.583333 L174.745146,132.583333 Z M207.63835,132.583333 C202.498786,132.583333 199.415049,136.694444 199.415049,140.805556 C199.415049,144.916667 202.498786,149.027778 207.63835,149.027778 C211.75,149.027778 215.86165,144.916667 215.86165,140.805556 C215.86165,136.694444 211.75,132.583333 207.63835,132.583333 L207.63835,132.583333 Z M240.531553,132.583333 C236.419903,132.583333 232.308252,136.694444 232.308252,140.805556 C232.308252,144.916667 236.419903,149.027778 240.531553,149.027778 C245.671117,149.027778 249.782767,144.916667 249.782767,140.805556 C248.754854,136.694444 244.643204,132.583333 240.531553,132.583333 L240.531553,132.583333 Z M307.345874,132.583333 C302.206311,132.583333 299.122573,136.694444 299.122573,140.805556 C299.122573,144.916667 303.234223,149.027778 307.345874,149.027778 C312.485437,149.027778 315.569175,144.916667 315.569175,140.805556 C315.569175,136.694444 312.485437,132.583333 307.345874,132.583333 L307.345874,132.583333 Z M340.239078,132.583333 C335.099515,132.583333 332.015777,136.694444 332.015777,140.805556 C332.015777,144.916667 336.127427,149.027778 340.239078,149.027778 C344.350728,149.027778 348.462379,144.916667 348.462379,140.805556 C348.462379,136.694444 344.350728,132.583333 340.239078,132.583333 L340.239078,132.583333 Z M373.132282,132.583333 C369.020631,132.583333 364.908981,136.694444 364.908981,140.805556 C364.908981,144.916667 369.020631,149.027778 373.132282,149.027778 C378.271845,149.027778 381.355583,144.916667 381.355583,140.805556 C382.383495,136.694444 378.271845,132.583333 373.132282,132.583333 L373.132282,132.583333 Z M407.053398,132.583333 C401.913835,132.583333 398.830097,136.694444 398.830097,140.805556 C398.830097,144.916667 401.913835,149.027778 407.053398,149.027778 C412.192961,149.027778 415.276699,144.916667 415.276699,140.805556 C415.276699,136.694444 411.165049,132.583333 407.053398,132.583333 L407.053398,132.583333 Z M439.946602,132.583333 C434.807039,132.583333 431.723301,136.694444 431.723301,140.805556 C431.723301,144.916667 435.834951,149.027778 439.946602,149.027778 C444.058252,149.027778 448.169903,144.916667 448.169903,140.805556 C448.169903,136.694444 445.086165,132.583333 439.946602,132.583333 L439.946602,132.583333 Z M273.424757,165.472222 C268.285194,165.472222 265.201456,169.583333 265.201456,173.694444 C265.201456,178.833333 268.285194,181.916667 273.424757,181.916667 C278.56432,181.916667 281.648058,177.805556 281.648058,173.694444 C282.675971,169.583333 278.56432,165.472222 273.424757,165.472222 L273.424757,165.472222 Z M8.22330097,166.5 C4.11165049,166.5 0,170.611111 0,174.722222 C0,179.861111 4.11165049,182.944444 8.22330097,182.944444 C13.3628641,182.944444 16.4466019,178.833333 16.4466019,174.722222 C16.4466019,169.583333 12.3349515,166.5 8.22330097,166.5 L8.22330097,166.5 Z M41.1165049,166.5 C35.9769417,166.5 32.8932039,170.611111 32.8932039,174.722222 C32.8932039,179.861111 37.0048544,182.944444 41.1165049,182.944444 C45.2281553,182.944444 49.3398058,178.833333 49.3398058,174.722222 C49.3398058,169.583333 46.256068,166.5 41.1165049,166.5 L41.1165049,166.5 Z M75.0376214,166.5 C69.8980583,166.5 66.8143204,170.611111 66.8143204,174.722222 C66.8143204,179.861111 70.9259709,182.944444 75.0376214,182.944444 C79.1492718,182.944444 83.2609223,178.833333 83.2609223,174.722222 C83.2609223,169.583333 79.1492718,166.5 75.0376214,166.5 L75.0376214,166.5 Z M107.930825,166.5 C103.819175,166.5 99.7075243,170.611111 99.7075243,174.722222 C99.7075243,179.861111 103.819175,182.944444 107.930825,182.944444 C113.070388,182.944444 116.154126,178.833333 116.154126,174.722222 C116.154126,169.583333 112.042476,166.5 107.930825,166.5 L107.930825,166.5 Z M140.824029,166.5 C135.684466,166.5 132.600728,170.611111 132.600728,174.722222 C132.600728,179.861111 135.684466,182.944444 140.824029,182.944444 C145.963592,182.944444 149.04733,178.833333 149.04733,174.722222 C149.04733,169.583333 145.963592,166.5 140.824029,166.5 L140.824029,166.5 Z M174.745146,166.5 C169.605583,166.5 166.521845,170.611111 166.521845,174.722222 C166.521845,179.861111 169.605583,182.944444 174.745146,182.944444 C179.884709,182.944444 182.968447,178.833333 182.968447,174.722222 C181.940534,169.583333 178.856796,166.5 174.745146,166.5 L174.745146,166.5 Z M207.63835,166.5 C202.498786,166.5 199.415049,170.611111 199.415049,174.722222 C199.415049,179.861111 202.498786,182.944444 207.63835,182.944444 C211.75,182.944444 215.86165,178.833333 215.86165,174.722222 C215.86165,169.583333 211.75,166.5 207.63835,166.5 L207.63835,166.5 Z M240.531553,166.5 C236.419903,166.5 232.308252,170.611111 232.308252,174.722222 C232.308252,179.861111 236.419903,182.944444 240.531553,182.944444 C245.671117,182.944444 249.782767,178.833333 249.782767,174.722222 C248.754854,169.583333 244.643204,166.5 240.531553,166.5 L240.531553,166.5 Z M307.345874,166.5 C302.206311,166.5 299.122573,170.611111 299.122573,174.722222 C299.122573,179.861111 303.234223,182.944444 307.345874,182.944444 C312.485437,182.944444 315.569175,178.833333 315.569175,174.722222 C315.569175,169.583333 312.485437,166.5 307.345874,166.5 L307.345874,166.5 Z M340.239078,166.5 C335.099515,166.5 332.015777,170.611111 332.015777,174.722222 C332.015777,179.861111 336.127427,182.944444 340.239078,182.944444 C344.350728,182.944444 348.462379,178.833333 348.462379,174.722222 C348.462379,169.583333 344.350728,166.5 340.239078,166.5 L340.239078,166.5 Z M373.132282,166.5 C369.020631,166.5 364.908981,170.611111 364.908981,174.722222 C364.908981,179.861111 369.020631,182.944444 373.132282,182.944444 C378.271845,182.944444 381.355583,178.833333 381.355583,174.722222 C382.383495,169.583333 378.271845,166.5 373.132282,166.5 L373.132282,166.5 Z M407.053398,166.5 C401.913835,166.5 398.830097,170.611111 398.830097,174.722222 C398.830097,179.861111 401.913835,182.944444 407.053398,182.944444 C412.192961,182.944444 415.276699,178.833333 415.276699,174.722222 C415.276699,169.583333 411.165049,166.5 407.053398,166.5 L407.053398,166.5 Z M439.946602,166.5 C434.807039,166.5 431.723301,170.611111 431.723301,174.722222 C431.723301,179.861111 435.834951,182.944444 439.946602,182.944444 C444.058252,182.944444 448.169903,178.833333 448.169903,174.722222 C448.169903,169.583333 445.086165,166.5 439.946602,166.5 L439.946602,166.5 Z M273.424757,198.361111 C268.285194,198.361111 265.201456,202.472222 265.201456,206.583333 C265.201456,211.722222 268.285194,214.805556 273.424757,214.805556 C278.56432,214.805556 281.648058,210.694444 281.648058,206.583333 C282.675971,202.472222 278.56432,198.361111 273.424757,198.361111 L273.424757,198.361111 Z M41.1165049,198.361111 C35.9769417,198.361111 32.8932039,202.472222 32.8932039,206.583333 C32.8932039,211.722222 37.0048544,214.805556 41.1165049,214.805556 C45.2281553,214.805556 49.3398058,210.694444 49.3398058,206.583333 C49.3398058,202.472222 46.256068,198.361111 41.1165049,198.361111 L41.1165049,198.361111 Z M75.0376214,198.361111 C69.8980583,198.361111 66.8143204,202.472222 66.8143204,206.583333 C66.8143204,211.722222 70.9259709,214.805556 75.0376214,214.805556 C79.1492718,214.805556 83.2609223,210.694444 83.2609223,206.583333 C83.2609223,202.472222 79.1492718,198.361111 75.0376214,198.361111 L75.0376214,198.361111 Z M107.930825,198.361111 C103.819175,198.361111 99.7075243,202.472222 99.7075243,206.583333 C99.7075243,211.722222 103.819175,214.805556 107.930825,214.805556 C113.070388,214.805556 116.154126,210.694444 116.154126,206.583333 C116.154126,202.472222 112.042476,198.361111 107.930825,198.361111 L107.930825,198.361111 Z M140.824029,198.361111 C135.684466,198.361111 132.600728,202.472222 132.600728,206.583333 C132.600728,211.722222 135.684466,214.805556 140.824029,214.805556 C145.963592,214.805556 149.04733,210.694444 149.04733,206.583333 C149.04733,202.472222 145.963592,198.361111 140.824029,198.361111 L140.824029,198.361111 Z M174.745146,198.361111 C169.605583,198.361111 166.521845,202.472222 166.521845,206.583333 C166.521845,211.722222 169.605583,214.805556 174.745146,214.805556 C179.884709,214.805556 182.968447,210.694444 182.968447,206.583333 C181.940534,202.472222 178.856796,198.361111 174.745146,198.361111 L174.745146,198.361111 Z M207.63835,198.361111 C202.498786,198.361111 199.415049,202.472222 199.415049,206.583333 C199.415049,211.722222 202.498786,214.805556 207.63835,214.805556 C211.75,214.805556 215.86165,210.694444 215.86165,206.583333 C215.86165,202.472222 211.75,198.361111 207.63835,198.361111 L207.63835,198.361111 Z M240.531553,198.361111 C236.419903,198.361111 232.308252,202.472222 232.308252,206.583333 C232.308252,211.722222 236.419903,214.805556 240.531553,214.805556 C245.671117,214.805556 249.782767,210.694444 249.782767,206.583333 C248.754854,202.472222 244.643204,198.361111 240.531553,198.361111 L240.531553,198.361111 Z M307.345874,198.361111 C302.206311,198.361111 299.122573,202.472222 299.122573,206.583333 C299.122573,211.722222 303.234223,214.805556 307.345874,214.805556 C312.485437,214.805556 315.569175,211.722222 315.569175,206.583333 C315.569175,202.472222 312.485437,198.361111 307.345874,198.361111 L307.345874,198.361111 Z M340.239078,198.361111 C335.099515,198.361111 332.015777,202.472222 332.015777,206.583333 C332.015777,211.722222 336.127427,214.805556 340.239078,214.805556 C344.350728,214.805556 348.462379,211.722222 348.462379,206.583333 C348.462379,202.472222 344.350728,198.361111 340.239078,198.361111 L340.239078,198.361111 Z M373.132282,198.361111 C369.020631,198.361111 364.908981,202.472222 364.908981,206.583333 C364.908981,211.722222 369.020631,214.805556 373.132282,214.805556 C378.271845,214.805556 381.355583,211.722222 381.355583,206.583333 C382.383495,202.472222 378.271845,198.361111 373.132282,198.361111 L373.132282,198.361111 Z M407.053398,198.361111 C401.913835,198.361111 398.830097,202.472222 398.830097,206.583333 C398.830097,211.722222 401.913835,214.805556 407.053398,214.805556 C412.192961,214.805556 415.276699,211.722222 415.276699,206.583333 C415.276699,202.472222 411.165049,198.361111 407.053398,198.361111 L407.053398,198.361111 Z M439.946602,198.361111 C434.807039,198.361111 431.723301,202.472222 431.723301,206.583333 C431.723301,211.722222 435.834951,214.805556 439.946602,214.805556 C444.058252,214.805556 448.169903,211.722222 448.169903,206.583333 C448.169903,202.472222 445.086165,198.361111 439.946602,198.361111 L439.946602,198.361111 Z M473.867718,198.361111 C468.728155,198.361111 465.644417,202.472222 465.644417,206.583333 C465.644417,211.722222 469.756068,214.805556 473.867718,214.805556 C477.979369,214.805556 482.091019,211.722222 482.091019,206.583333 C482.091019,202.472222 477.979369,198.361111 473.867718,198.361111 L473.867718,198.361111 Z M506.760922,198.361111 C502.649272,198.361111 498.537621,202.472222 498.537621,206.583333 C498.537621,211.722222 502.649272,214.805556 506.760922,214.805556 C511.900485,214.805556 514.984223,211.722222 514.984223,206.583333 C514.984223,202.472222 510.872573,198.361111 506.760922,198.361111 L506.760922,198.361111 Z M539.654126,198.361111 C534.514563,198.361111 531.430825,202.472222 531.430825,206.583333 C531.430825,211.722222 535.542476,214.805556 539.654126,214.805556 C544.793689,214.805556 547.877427,211.722222 547.877427,206.583333 C547.877427,202.472222 544.793689,198.361111 539.654126,198.361111 L539.654126,198.361111 Z M273.424757,232.277778 C268.285194,232.277778 265.201456,235.361111 265.201456,240.5 C265.201456,245.638889 268.285194,248.722222 273.424757,248.722222 C278.56432,248.722222 281.648058,244.611111 281.648058,240.5 C281.648058,236.388889 278.56432,232.277778 273.424757,232.277778 L273.424757,232.277778 Z M107.930825,232.277778 C103.819175,232.277778 99.7075243,236.388889 99.7075243,240.5 C99.7075243,245.638889 103.819175,248.722222 107.930825,248.722222 C113.070388,248.722222 116.154126,245.638889 116.154126,240.5 C116.154126,236.388889 112.042476,232.277778 107.930825,232.277778 L107.930825,232.277778 Z M140.824029,232.277778 C135.684466,232.277778 132.600728,236.388889 132.600728,240.5 C132.600728,245.638889 135.684466,248.722222 140.824029,248.722222 C145.963592,248.722222 149.04733,245.638889 149.04733,240.5 C149.04733,236.388889 145.963592,232.277778 140.824029,232.277778 L140.824029,232.277778 Z M174.745146,232.277778 C169.605583,232.277778 166.521845,236.388889 166.521845,240.5 C166.521845,245.638889 169.605583,248.722222 174.745146,248.722222 C179.884709,248.722222 182.968447,245.638889 182.968447,240.5 C181.940534,236.388889 178.856796,232.277778 174.745146,232.277778 L174.745146,232.277778 Z M207.63835,232.277778 C202.498786,232.277778 199.415049,236.388889 199.415049,240.5 C199.415049,245.638889 202.498786,248.722222 207.63835,248.722222 C211.75,248.722222 215.86165,245.638889 215.86165,240.5 C215.86165,236.388889 211.75,232.277778 207.63835,232.277778 L207.63835,232.277778 Z M240.531553,232.277778 C236.419903,232.277778 232.308252,236.388889 232.308252,240.5 C232.308252,245.638889 236.419903,248.722222 240.531553,248.722222 C245.671117,248.722222 249.782767,245.638889 249.782767,240.5 C248.754854,236.388889 244.643204,232.277778 240.531553,232.277778 L240.531553,232.277778 Z M307.345874,232.277778 C302.206311,232.277778 299.122573,236.388889 299.122573,240.5 C299.122573,245.638889 303.234223,248.722222 307.345874,248.722222 C312.485437,248.722222 315.569175,245.638889 315.569175,240.5 C315.569175,236.388889 312.485437,232.277778 307.345874,232.277778 L307.345874,232.277778 Z M340.239078,232.277778 C335.099515,232.277778 332.015777,236.388889 332.015777,240.5 C332.015777,245.638889 336.127427,248.722222 340.239078,248.722222 C344.350728,248.722222 348.462379,245.638889 348.462379,240.5 C348.462379,236.388889 344.350728,232.277778 340.239078,232.277778 L340.239078,232.277778 Z M373.132282,232.277778 C369.020631,232.277778 364.908981,236.388889 364.908981,240.5 C364.908981,245.638889 369.020631,248.722222 373.132282,248.722222 C378.271845,248.722222 381.355583,245.638889 381.355583,240.5 C382.383495,236.388889 378.271845,232.277778 373.132282,232.277778 L373.132282,232.277778 Z M407.053398,232.277778 C401.913835,232.277778 398.830097,236.388889 398.830097,240.5 C398.830097,245.638889 401.913835,248.722222 407.053398,248.722222 C412.192961,248.722222 415.276699,245.638889 415.276699,240.5 C415.276699,236.388889 411.165049,232.277778 407.053398,232.277778 L407.053398,232.277778 Z M439.946602,232.277778 C434.807039,232.277778 431.723301,236.388889 431.723301,240.5 C431.723301,245.638889 435.834951,248.722222 439.946602,248.722222 C444.058252,248.722222 448.169903,245.638889 448.169903,240.5 C448.169903,236.388889 445.086165,232.277778 439.946602,232.277778 L439.946602,232.277778 Z M473.867718,232.277778 C468.728155,232.277778 465.644417,236.388889 465.644417,240.5 C465.644417,245.638889 469.756068,248.722222 473.867718,248.722222 C477.979369,248.722222 482.091019,245.638889 482.091019,240.5 C482.091019,236.388889 477.979369,232.277778 473.867718,232.277778 L473.867718,232.277778 Z M506.760922,232.277778 C502.649272,232.277778 498.537621,236.388889 498.537621,240.5 C498.537621,245.638889 502.649272,248.722222 506.760922,248.722222 C511.900485,248.722222 514.984223,245.638889 514.984223,240.5 C514.984223,236.388889 510.872573,232.277778 506.760922,232.277778 L506.760922,232.277778 Z M539.654126,232.277778 C534.514563,232.277778 531.430825,236.388889 531.430825,240.5 C531.430825,245.638889 535.542476,248.722222 539.654126,248.722222 C544.793689,248.722222 547.877427,245.638889 547.877427,240.5 C547.877427,236.388889 544.793689,232.277778 539.654126,232.277778 L539.654126,232.277778 Z M572.54733,232.277778 C567.407767,232.277778 564.324029,236.388889 564.324029,240.5 C564.324029,245.638889 567.407767,248.722222 572.54733,248.722222 C577.686893,248.722222 580.770631,245.638889 580.770631,240.5 C580.770631,236.388889 577.686893,232.277778 572.54733,232.277778 L572.54733,232.277778 Z M273.424757,265.166667 C268.285194,265.166667 265.201456,269.277778 265.201456,273.388889 C265.201456,277.5 268.285194,281.611111 273.424757,281.611111 C278.56432,281.611111 281.648058,277.5 281.648058,273.388889 C282.675971,269.277778 278.56432,265.166667 273.424757,265.166667 L273.424757,265.166667 Z M140.824029,265.166667 C135.684466,265.166667 132.600728,269.277778 132.600728,273.388889 C132.600728,277.5 135.684466,281.611111 140.824029,281.611111 C145.963592,281.611111 149.04733,277.5 149.04733,273.388889 C149.04733,269.277778 145.963592,265.166667 140.824029,265.166667 L140.824029,265.166667 Z M174.745146,265.166667 C169.605583,265.166667 166.521845,269.277778 166.521845,273.388889 C166.521845,277.5 169.605583,281.611111 174.745146,281.611111 C179.884709,281.611111 182.968447,277.5 182.968447,273.388889 C181.940534,269.277778 178.856796,265.166667 174.745146,265.166667 L174.745146,265.166667 Z M207.63835,265.166667 C202.498786,265.166667 199.415049,269.277778 199.415049,273.388889 C199.415049,277.5 202.498786,281.611111 207.63835,281.611111 C211.75,281.611111 215.86165,277.5 215.86165,273.388889 C215.86165,269.277778 211.75,265.166667 207.63835,265.166667 L207.63835,265.166667 Z M240.531553,265.166667 C236.419903,265.166667 232.308252,269.277778 232.308252,273.388889 C232.308252,277.5 236.419903,281.611111 240.531553,281.611111 C245.671117,281.611111 249.782767,277.5 249.782767,273.388889 C248.754854,269.277778 244.643204,265.166667 240.531553,265.166667 L240.531553,265.166667 Z M307.345874,265.166667 C302.206311,265.166667 299.122573,269.277778 299.122573,273.388889 C299.122573,277.5 303.234223,281.611111 307.345874,281.611111 C312.485437,281.611111 315.569175,277.5 315.569175,273.388889 C315.569175,269.277778 312.485437,265.166667 307.345874,265.166667 L307.345874,265.166667 Z M340.239078,265.166667 C335.099515,265.166667 332.015777,269.277778 332.015777,273.388889 C332.015777,277.5 336.127427,281.611111 340.239078,281.611111 C344.350728,281.611111 348.462379,277.5 348.462379,273.388889 C348.462379,269.277778 344.350728,265.166667 340.239078,265.166667 L340.239078,265.166667 Z M373.132282,265.166667 C369.020631,265.166667 364.908981,269.277778 364.908981,273.388889 C364.908981,277.5 369.020631,281.611111 373.132282,281.611111 C378.271845,281.611111 381.355583,277.5 381.355583,273.388889 C382.383495,269.277778 378.271845,265.166667 373.132282,265.166667 L373.132282,265.166667 Z M407.053398,265.166667 C401.913835,265.166667 398.830097,269.277778 398.830097,273.388889 C398.830097,277.5 401.913835,281.611111 407.053398,281.611111 C412.192961,281.611111 415.276699,277.5 415.276699,273.388889 C415.276699,269.277778 411.165049,265.166667 407.053398,265.166667 L407.053398,265.166667 Z M439.946602,265.166667 C434.807039,265.166667 431.723301,269.277778 431.723301,273.388889 C431.723301,277.5 435.834951,281.611111 439.946602,281.611111 C444.058252,281.611111 448.169903,277.5 448.169903,273.388889 C448.169903,269.277778 445.086165,265.166667 439.946602,265.166667 L439.946602,265.166667 Z M473.867718,265.166667 C468.728155,265.166667 465.644417,269.277778 465.644417,273.388889 C465.644417,277.5 469.756068,281.611111 473.867718,281.611111 C477.979369,281.611111 482.091019,277.5 482.091019,273.388889 C482.091019,269.277778 477.979369,265.166667 473.867718,265.166667 L473.867718,265.166667 Z M506.760922,265.166667 C502.649272,265.166667 498.537621,269.277778 498.537621,273.388889 C498.537621,277.5 502.649272,281.611111 506.760922,281.611111 C511.900485,281.611111 514.984223,277.5 514.984223,273.388889 C514.984223,269.277778 510.872573,265.166667 506.760922,265.166667 L506.760922,265.166667 Z M539.654126,265.166667 C534.514563,265.166667 531.430825,269.277778 531.430825,273.388889 C531.430825,277.5 535.542476,281.611111 539.654126,281.611111 C544.793689,281.611111 547.877427,277.5 547.877427,273.388889 C547.877427,269.277778 544.793689,265.166667 539.654126,265.166667 L539.654126,265.166667 Z M572.54733,265.166667 C567.407767,265.166667 564.324029,269.277778 564.324029,273.388889 C564.324029,277.5 567.407767,281.611111 572.54733,281.611111 C577.686893,281.611111 580.770631,277.5 580.770631,273.388889 C580.770631,269.277778 577.686893,265.166667 572.54733,265.166667 L572.54733,265.166667 Z M606.468447,265.166667 C601.328883,265.166667 598.245146,269.277778 598.245146,273.388889 C598.245146,277.5 602.356796,281.611111 606.468447,281.611111 C610.580097,281.611111 614.691748,277.5 614.691748,273.388889 C614.691748,269.277778 610.580097,265.166667 606.468447,265.166667 L606.468447,265.166667 Z M639.36165,265.166667 C634.222087,265.166667 631.13835,269.277778 631.13835,273.388889 C631.13835,277.5 635.25,281.611111 639.36165,281.611111 C643.473301,281.611111 647.584951,277.5 647.584951,273.388889 C647.584951,269.277778 644.501214,265.166667 639.36165,265.166667 L639.36165,265.166667 Z M672.254854,265.166667 C667.115291,265.166667 664.031553,268.25 664.031553,273.388889 C664.031553,278.527778 668.143204,281.611111 672.254854,281.611111 C676.366505,281.611111 680.478155,278.527778 680.478155,273.388889 C680.478155,269.277778 677.394417,265.166667 672.254854,265.166667 L672.254854,265.166667 Z M706.175971,265.166667 C701.036408,265.166667 697.95267,268.25 697.95267,273.388889 C697.95267,278.527778 702.06432,281.611111 706.175971,281.611111 C710.287621,281.611111 714.399272,278.527778 714.399272,273.388889 C714.399272,269.277778 710.287621,265.166667 706.175971,265.166667 L706.175971,265.166667 Z M273.424757,298.055556 C268.285194,298.055556 265.201456,302.166667 265.201456,306.277778 C265.201456,311.416667 268.285194,314.5 273.424757,314.5 C278.56432,314.5 281.648058,310.388889 281.648058,306.277778 C282.675971,302.166667 278.56432,298.055556 273.424757,298.055556 L273.424757,298.055556 Z M805.883495,298.055556 C800.743932,298.055556 797.660194,302.166667 797.660194,306.277778 C797.660194,310.388889 800.743932,314.5 805.883495,314.5 C811.023058,314.5 814.106796,310.388889 814.106796,306.277778 C814.106796,302.166667 809.995146,298.055556 805.883495,298.055556 L805.883495,298.055556 Z M240.531553,299.083333 C236.419903,299.083333 232.308252,303.194444 232.308252,307.305556 C232.308252,312.444444 236.419903,315.527778 240.531553,315.527778 C245.671117,315.527778 249.782767,311.416667 249.782767,307.305556 C248.754854,303.194444 244.643204,299.083333 240.531553,299.083333 L240.531553,299.083333 Z M672.254854,299.083333 C667.115291,299.083333 664.031553,303.194444 664.031553,307.305556 C664.031553,312.444444 668.143204,315.527778 672.254854,315.527778 C676.366505,315.527778 680.478155,311.416667 680.478155,307.305556 C680.478155,302.166667 677.394417,299.083333 672.254854,299.083333 L672.254854,299.083333 Z M706.175971,299.083333 C701.036408,299.083333 697.95267,303.194444 697.95267,307.305556 C697.95267,312.444444 702.06432,315.527778 706.175971,315.527778 C710.287621,315.527778 714.399272,311.416667 714.399272,307.305556 C714.399272,302.166667 710.287621,299.083333 706.175971,299.083333 L706.175971,299.083333 Z M739.069175,299.083333 C734.957524,299.083333 730.845874,303.194444 730.845874,307.305556 C730.845874,312.444444 734.957524,315.527778 739.069175,315.527778 C744.208738,315.527778 747.292476,311.416667 747.292476,307.305556 C747.292476,302.166667 743.180825,299.083333 739.069175,299.083333 L739.069175,299.083333 Z M771.962379,299.083333 C766.822816,299.083333 763.739078,303.194444 763.739078,307.305556 C763.739078,312.444444 766.822816,315.527778 771.962379,315.527778 C777.101942,315.527778 780.18568,311.416667 780.18568,307.305556 C780.18568,302.166667 777.101942,299.083333 771.962379,299.083333 L771.962379,299.083333 Z M838.776699,299.083333 C833.637136,299.083333 830.553398,303.194444 830.553398,307.305556 C830.553398,312.444444 834.665049,316.555556 838.776699,316.555556 C842.88835,316.555556 847,312.444444 847,307.305556 C847,302.166667 842.88835,299.083333 838.776699,299.083333 L838.776699,299.083333 Z M307.345874,299.083333 C302.206311,299.083333 299.122573,303.194444 299.122573,307.305556 C299.122573,312.444444 303.234223,315.527778 307.345874,315.527778 C312.485437,315.527778 315.569175,311.416667 315.569175,307.305556 C315.569175,303.194444 312.485437,299.083333 307.345874,299.083333 L307.345874,299.083333 Z M340.239078,299.083333 C335.099515,299.083333 332.015777,303.194444 332.015777,307.305556 C332.015777,312.444444 336.127427,315.527778 340.239078,315.527778 C344.350728,315.527778 348.462379,311.416667 348.462379,307.305556 C348.462379,303.194444 344.350728,299.083333 340.239078,299.083333 L340.239078,299.083333 Z M373.132282,299.083333 C369.020631,299.083333 364.908981,303.194444 364.908981,307.305556 C364.908981,312.444444 369.020631,315.527778 373.132282,315.527778 C378.271845,315.527778 381.355583,311.416667 381.355583,307.305556 C382.383495,303.194444 378.271845,299.083333 373.132282,299.083333 L373.132282,299.083333 Z M407.053398,299.083333 C401.913835,299.083333 398.830097,303.194444 398.830097,307.305556 C398.830097,312.444444 401.913835,315.527778 407.053398,315.527778 C412.192961,315.527778 415.276699,311.416667 415.276699,307.305556 C415.276699,303.194444 411.165049,299.083333 407.053398,299.083333 L407.053398,299.083333 Z M439.946602,299.083333 C434.807039,299.083333 431.723301,303.194444 431.723301,307.305556 C431.723301,312.444444 435.834951,315.527778 439.946602,315.527778 C444.058252,315.527778 448.169903,311.416667 448.169903,307.305556 C448.169903,303.194444 445.086165,299.083333 439.946602,299.083333 L439.946602,299.083333 Z M473.867718,299.083333 C468.728155,299.083333 465.644417,303.194444 465.644417,307.305556 C465.644417,312.444444 469.756068,315.527778 473.867718,315.527778 C477.979369,315.527778 482.091019,311.416667 482.091019,307.305556 C482.091019,303.194444 477.979369,299.083333 473.867718,299.083333 L473.867718,299.083333 Z M506.760922,299.083333 C502.649272,299.083333 498.537621,303.194444 498.537621,307.305556 C498.537621,312.444444 502.649272,315.527778 506.760922,315.527778 C511.900485,315.527778 514.984223,311.416667 514.984223,307.305556 C514.984223,303.194444 510.872573,299.083333 506.760922,299.083333 L506.760922,299.083333 Z M539.654126,299.083333 C534.514563,299.083333 531.430825,303.194444 531.430825,307.305556 C531.430825,312.444444 535.542476,315.527778 539.654126,315.527778 C544.793689,315.527778 547.877427,311.416667 547.877427,307.305556 C547.877427,303.194444 544.793689,299.083333 539.654126,299.083333 L539.654126,299.083333 Z M572.54733,299.083333 C567.407767,299.083333 564.324029,303.194444 564.324029,307.305556 C564.324029,312.444444 567.407767,315.527778 572.54733,315.527778 C577.686893,315.527778 580.770631,311.416667 580.770631,307.305556 C580.770631,303.194444 577.686893,299.083333 572.54733,299.083333 L572.54733,299.083333 Z M606.468447,299.083333 C601.328883,299.083333 598.245146,303.194444 598.245146,307.305556 C598.245146,312.444444 602.356796,315.527778 606.468447,315.527778 C610.580097,315.527778 614.691748,311.416667 614.691748,307.305556 C614.691748,303.194444 610.580097,299.083333 606.468447,299.083333 L606.468447,299.083333 Z M639.36165,299.083333 C634.222087,299.083333 631.13835,303.194444 631.13835,307.305556 C631.13835,312.444444 635.25,315.527778 639.36165,315.527778 C643.473301,315.527778 647.584951,311.416667 647.584951,307.305556 C647.584951,303.194444 644.501214,299.083333 639.36165,299.083333 L639.36165,299.083333 Z M805.883495,330.944444 C800.743932,330.944444 797.660194,335.055556 797.660194,339.166667 C797.660194,344.305556 800.743932,347.388889 805.883495,347.388889 C811.023058,347.388889 814.106796,343.277778 814.106796,339.166667 C814.106796,335.055556 809.995146,330.944444 805.883495,330.944444 L805.883495,330.944444 Z M273.424757,331.972222 C268.285194,331.972222 265.201456,336.083333 265.201456,340.194444 C265.201456,345.333333 268.285194,348.416667 273.424757,348.416667 C278.56432,348.416667 281.648058,344.305556 281.648058,340.194444 C282.675971,335.055556 278.56432,331.972222 273.424757,331.972222 L273.424757,331.972222 Z M672.254854,331.972222 C667.115291,331.972222 664.031553,336.083333 664.031553,340.194444 C664.031553,345.333333 668.143204,348.416667 672.254854,348.416667 C676.366505,348.416667 680.478155,344.305556 680.478155,340.194444 C680.478155,335.055556 677.394417,331.972222 672.254854,331.972222 L672.254854,331.972222 Z M706.175971,331.972222 C701.036408,331.972222 697.95267,336.083333 697.95267,340.194444 C697.95267,345.333333 702.06432,348.416667 706.175971,348.416667 C710.287621,348.416667 714.399272,344.305556 714.399272,340.194444 C714.399272,335.055556 710.287621,331.972222 706.175971,331.972222 L706.175971,331.972222 Z M739.069175,331.972222 C734.957524,331.972222 730.845874,336.083333 730.845874,340.194444 C730.845874,345.333333 734.957524,348.416667 739.069175,348.416667 C744.208738,348.416667 747.292476,344.305556 747.292476,340.194444 C747.292476,335.055556 743.180825,331.972222 739.069175,331.972222 L739.069175,331.972222 Z M771.962379,331.972222 C766.822816,331.972222 763.739078,336.083333 763.739078,340.194444 C763.739078,345.333333 766.822816,348.416667 771.962379,348.416667 C777.101942,348.416667 780.18568,344.305556 780.18568,340.194444 C780.18568,335.055556 777.101942,331.972222 771.962379,331.972222 L771.962379,331.972222 Z M307.345874,331.972222 C302.206311,331.972222 299.122573,335.055556 299.122573,340.194444 C299.122573,345.333333 303.234223,348.416667 307.345874,348.416667 C312.485437,348.416667 315.569175,344.305556 315.569175,340.194444 C315.569175,335.055556 312.485437,331.972222 307.345874,331.972222 L307.345874,331.972222 Z M340.239078,331.972222 C335.099515,331.972222 332.015777,335.055556 332.015777,340.194444 C332.015777,345.333333 336.127427,348.416667 340.239078,348.416667 C344.350728,348.416667 348.462379,344.305556 348.462379,340.194444 C348.462379,335.055556 344.350728,331.972222 340.239078,331.972222 L340.239078,331.972222 Z M373.132282,331.972222 C369.020631,331.972222 364.908981,335.055556 364.908981,340.194444 C364.908981,345.333333 369.020631,348.416667 373.132282,348.416667 C378.271845,348.416667 381.355583,344.305556 381.355583,340.194444 C382.383495,335.055556 378.271845,331.972222 373.132282,331.972222 L373.132282,331.972222 Z M407.053398,331.972222 C401.913835,331.972222 398.830097,335.055556 398.830097,340.194444 C398.830097,345.333333 401.913835,348.416667 407.053398,348.416667 C412.192961,348.416667 415.276699,344.305556 415.276699,340.194444 C415.276699,335.055556 411.165049,331.972222 407.053398,331.972222 L407.053398,331.972222 Z M439.946602,331.972222 C434.807039,331.972222 431.723301,335.055556 431.723301,340.194444 C431.723301,345.333333 435.834951,348.416667 439.946602,348.416667 C444.058252,348.416667 448.169903,344.305556 448.169903,340.194444 C448.169903,335.055556 445.086165,331.972222 439.946602,331.972222 L439.946602,331.972222 Z M473.867718,331.972222 C468.728155,331.972222 465.644417,335.055556 465.644417,340.194444 C465.644417,345.333333 469.756068,348.416667 473.867718,348.416667 C477.979369,348.416667 482.091019,344.305556 482.091019,340.194444 C482.091019,335.055556 477.979369,331.972222 473.867718,331.972222 L473.867718,331.972222 Z M506.760922,331.972222 C502.649272,331.972222 498.537621,335.055556 498.537621,340.194444 C498.537621,345.333333 502.649272,348.416667 506.760922,348.416667 C511.900485,348.416667 514.984223,344.305556 514.984223,340.194444 C514.984223,335.055556 510.872573,331.972222 506.760922,331.972222 L506.760922,331.972222 Z M539.654126,331.972222 C534.514563,331.972222 531.430825,335.055556 531.430825,340.194444 C531.430825,345.333333 535.542476,348.416667 539.654126,348.416667 C544.793689,348.416667 547.877427,344.305556 547.877427,340.194444 C547.877427,335.055556 544.793689,331.972222 539.654126,331.972222 L539.654126,331.972222 Z M572.54733,331.972222 C567.407767,331.972222 564.324029,335.055556 564.324029,340.194444 C564.324029,345.333333 567.407767,348.416667 572.54733,348.416667 C577.686893,348.416667 580.770631,344.305556 580.770631,340.194444 C580.770631,335.055556 577.686893,331.972222 572.54733,331.972222 L572.54733,331.972222 Z M606.468447,331.972222 C601.328883,331.972222 598.245146,335.055556 598.245146,340.194444 C598.245146,345.333333 602.356796,348.416667 606.468447,348.416667 C610.580097,348.416667 614.691748,344.305556 614.691748,340.194444 C614.691748,335.055556 610.580097,331.972222 606.468447,331.972222 L606.468447,331.972222 Z M639.36165,331.972222 C634.222087,331.972222 631.13835,335.055556 631.13835,340.194444 C631.13835,345.333333 635.25,348.416667 639.36165,348.416667 C643.473301,348.416667 647.584951,344.305556 647.584951,340.194444 C647.584951,335.055556 644.501214,331.972222 639.36165,331.972222 L639.36165,331.972222 Z M805.883495,364.861111 C800.743932,364.861111 797.660194,367.944444 797.660194,373.083333 C797.660194,378.222222 800.743932,381.305556 805.883495,381.305556 C811.023058,381.305556 814.106796,377.194444 814.106796,373.083333 C814.106796,367.944444 809.995146,364.861111 805.883495,364.861111 L805.883495,364.861111 Z M672.254854,364.861111 C667.115291,364.861111 664.031553,367.944444 664.031553,373.083333 C664.031553,378.222222 668.143204,381.305556 672.254854,381.305556 C676.366505,381.305556 680.478155,377.194444 680.478155,373.083333 C680.478155,368.972222 677.394417,364.861111 672.254854,364.861111 L672.254854,364.861111 Z M706.175971,364.861111 C701.036408,364.861111 697.95267,367.944444 697.95267,373.083333 C697.95267,378.222222 702.06432,381.305556 706.175971,381.305556 C710.287621,381.305556 714.399272,377.194444 714.399272,373.083333 C714.399272,368.972222 710.287621,364.861111 706.175971,364.861111 L706.175971,364.861111 Z M739.069175,364.861111 C734.957524,364.861111 730.845874,367.944444 730.845874,373.083333 C730.845874,378.222222 734.957524,381.305556 739.069175,381.305556 C744.208738,381.305556 747.292476,377.194444 747.292476,373.083333 C747.292476,368.972222 743.180825,364.861111 739.069175,364.861111 L739.069175,364.861111 Z M771.962379,364.861111 C766.822816,364.861111 763.739078,367.944444 763.739078,373.083333 C763.739078,378.222222 766.822816,381.305556 771.962379,381.305556 C777.101942,381.305556 780.18568,377.194444 780.18568,373.083333 C780.18568,368.972222 777.101942,364.861111 771.962379,364.861111 L771.962379,364.861111 Z M473.867718,365.888889 C468.728155,365.888889 465.644417,368.972222 465.644417,374.111111 C465.644417,379.25 469.756068,382.333333 473.867718,382.333333 C477.979369,382.333333 482.091019,378.222222 482.091019,374.111111 C482.091019,368.972222 477.979369,365.888889 473.867718,365.888889 L473.867718,365.888889 Z M506.760922,365.888889 C502.649272,365.888889 498.537621,368.972222 498.537621,374.111111 C498.537621,379.25 502.649272,382.333333 506.760922,382.333333 C511.900485,382.333333 514.984223,378.222222 514.984223,374.111111 C514.984223,368.972222 510.872573,365.888889 506.760922,365.888889 L506.760922,365.888889 Z M539.654126,365.888889 C534.514563,365.888889 531.430825,368.972222 531.430825,374.111111 C531.430825,379.25 535.542476,382.333333 539.654126,382.333333 C544.793689,382.333333 547.877427,378.222222 547.877427,374.111111 C547.877427,368.972222 544.793689,365.888889 539.654126,365.888889 L539.654126,365.888889 Z M572.54733,365.888889 C567.407767,365.888889 564.324029,368.972222 564.324029,374.111111 C564.324029,379.25 567.407767,382.333333 572.54733,382.333333 C577.686893,382.333333 580.770631,378.222222 580.770631,374.111111 C580.770631,368.972222 577.686893,365.888889 572.54733,365.888889 L572.54733,365.888889 Z M606.468447,365.888889 C601.328883,365.888889 598.245146,368.972222 598.245146,374.111111 C598.245146,379.25 602.356796,382.333333 606.468447,382.333333 C610.580097,382.333333 614.691748,378.222222 614.691748,374.111111 C614.691748,368.972222 610.580097,365.888889 606.468447,365.888889 L606.468447,365.888889 Z M639.36165,365.888889 C634.222087,365.888889 631.13835,368.972222 631.13835,374.111111 C631.13835,379.25 635.25,382.333333 639.36165,382.333333 C643.473301,382.333333 647.584951,378.222222 647.584951,374.111111 C647.584951,368.972222 644.501214,365.888889 639.36165,365.888889 L639.36165,365.888889 Z M805.883495,397.75 C800.743932,397.75 797.660194,400.833333 797.660194,405.972222 C797.660194,411.111111 800.743932,414.194444 805.883495,414.194444 C811.023058,414.194444 814.106796,410.083333 814.106796,405.972222 C814.106796,401.861111 809.995146,397.75 805.883495,397.75 L805.883495,397.75 Z M672.254854,397.75 C667.115291,397.75 664.031553,401.861111 664.031553,407 C664.031553,411.111111 668.143204,415.222222 672.254854,415.222222 C676.366505,415.222222 680.478155,411.111111 680.478155,407 C680.478155,401.861111 677.394417,397.75 672.254854,397.75 L672.254854,397.75 Z M706.175971,397.75 C701.036408,397.75 697.95267,401.861111 697.95267,407 C697.95267,411.111111 702.06432,415.222222 706.175971,415.222222 C710.287621,415.222222 714.399272,411.111111 714.399272,407 C714.399272,401.861111 710.287621,397.75 706.175971,397.75 L706.175971,397.75 Z M739.069175,397.75 C734.957524,397.75 730.845874,401.861111 730.845874,407 C730.845874,411.111111 734.957524,415.222222 739.069175,415.222222 C744.208738,415.222222 747.292476,411.111111 747.292476,407 C747.292476,401.861111 743.180825,397.75 739.069175,397.75 L739.069175,397.75 Z M771.962379,397.75 C766.822816,397.75 763.739078,401.861111 763.739078,407 C763.739078,411.111111 766.822816,415.222222 771.962379,415.222222 C777.101942,415.222222 780.18568,411.111111 780.18568,407 C780.18568,401.861111 777.101942,397.75 771.962379,397.75 L771.962379,397.75 Z M838.776699,397.75 C833.637136,397.75 830.553398,401.861111 830.553398,407 C830.553398,411.111111 834.665049,415.222222 838.776699,415.222222 C842.88835,415.222222 847,411.111111 847,407 C847,401.861111 842.88835,397.75 838.776699,397.75 L838.776699,397.75 Z M506.760922,398.777778 C502.649272,398.777778 498.537621,402.888889 498.537621,407 C498.537621,411.111111 502.649272,415.222222 506.760922,415.222222 C511.900485,415.222222 514.984223,411.111111 514.984223,407 C514.984223,401.861111 510.872573,398.777778 506.760922,398.777778 L506.760922,398.777778 Z M539.654126,398.777778 C534.514563,398.777778 531.430825,402.888889 531.430825,407 C531.430825,411.111111 535.542476,415.222222 539.654126,415.222222 C544.793689,415.222222 547.877427,411.111111 547.877427,407 C547.877427,401.861111 544.793689,398.777778 539.654126,398.777778 L539.654126,398.777778 Z M572.54733,398.777778 C567.407767,398.777778 564.324029,402.888889 564.324029,407 C564.324029,411.111111 567.407767,415.222222 572.54733,415.222222 C577.686893,415.222222 580.770631,411.111111 580.770631,407 C580.770631,401.861111 577.686893,398.777778 572.54733,398.777778 L572.54733,398.777778 Z M606.468447,398.777778 C601.328883,398.777778 598.245146,402.888889 598.245146,407 C598.245146,411.111111 602.356796,415.222222 606.468447,415.222222 C610.580097,415.222222 614.691748,411.111111 614.691748,407 C614.691748,401.861111 610.580097,398.777778 606.468447,398.777778 L606.468447,398.777778 Z M639.36165,398.777778 C634.222087,398.777778 631.13835,402.888889 631.13835,407 C631.13835,411.111111 635.25,415.222222 639.36165,415.222222 C643.473301,415.222222 647.584951,411.111111 647.584951,407 C647.584951,401.861111 644.501214,398.777778 639.36165,398.777778 L639.36165,398.777778 Z M805.883495,431.666667 C800.743932,431.666667 797.660194,435.777778 797.660194,439.888889 C797.660194,445.027778 800.743932,448.111111 805.883495,448.111111 C811.023058,448.111111 814.106796,444 814.106796,439.888889 C814.106796,435.777778 809.995146,431.666667 805.883495,431.666667 L805.883495,431.666667 Z M672.254854,431.666667 C667.115291,431.666667 664.031553,435.777778 664.031553,439.888889 C664.031553,445.027778 668.143204,448.111111 672.254854,448.111111 C676.366505,448.111111 680.478155,445.027778 680.478155,439.888889 C680.478155,435.777778 677.394417,431.666667 672.254854,431.666667 L672.254854,431.666667 Z M706.175971,431.666667 C701.036408,431.666667 697.95267,435.777778 697.95267,439.888889 C697.95267,445.027778 702.06432,448.111111 706.175971,448.111111 C710.287621,448.111111 714.399272,445.027778 714.399272,439.888889 C714.399272,435.777778 710.287621,431.666667 706.175971,431.666667 L706.175971,431.666667 Z M739.069175,431.666667 C734.957524,431.666667 730.845874,435.777778 730.845874,439.888889 C730.845874,445.027778 734.957524,448.111111 739.069175,448.111111 C744.208738,448.111111 747.292476,445.027778 747.292476,439.888889 C747.292476,435.777778 743.180825,431.666667 739.069175,431.666667 L739.069175,431.666667 Z M771.962379,431.666667 C766.822816,431.666667 763.739078,435.777778 763.739078,439.888889 C763.739078,445.027778 766.822816,448.111111 771.962379,448.111111 C777.101942,448.111111 780.18568,445.027778 780.18568,439.888889 C780.18568,435.777778 777.101942,431.666667 771.962379,431.666667 L771.962379,431.666667 Z M838.776699,431.666667 C833.637136,431.666667 830.553398,435.777778 830.553398,439.888889 C830.553398,445.027778 834.665049,448.111111 838.776699,448.111111 C842.88835,448.111111 847,445.027778 847,439.888889 C847,435.777778 842.88835,431.666667 838.776699,431.666667 L838.776699,431.666667 Z M606.468447,431.666667 C601.328883,431.666667 598.245146,435.777778 598.245146,439.888889 C598.245146,445.027778 602.356796,448.111111 606.468447,448.111111 C610.580097,448.111111 614.691748,445.027778 614.691748,439.888889 C614.691748,435.777778 610.580097,431.666667 606.468447,431.666667 L606.468447,431.666667 Z M639.36165,431.666667 C634.222087,431.666667 631.13835,435.777778 631.13835,439.888889 C631.13835,445.027778 635.25,448.111111 639.36165,448.111111 C643.473301,448.111111 647.584951,445.027778 647.584951,439.888889 C647.584951,435.777778 644.501214,431.666667 639.36165,431.666667 L639.36165,431.666667 Z M739.069175,464.555556 C734.957524,464.555556 730.845874,468.666667 730.845874,472.777778 C730.845874,477.916667 734.957524,481 739.069175,481 C744.208738,481 747.292476,477.916667 747.292476,472.777778 C747.292476,468.666667 743.180825,464.555556 739.069175,464.555556 L739.069175,464.555556 Z M771.962379,464.555556 C766.822816,464.555556 763.739078,468.666667 763.739078,472.777778 C763.739078,477.916667 766.822816,481 771.962379,481 C777.101942,481 780.18568,477.916667 780.18568,472.777778 C780.18568,468.666667 777.101942,464.555556 771.962379,464.555556 L771.962379,464.555556 Z M838.776699,464.555556 C833.637136,464.555556 830.553398,467.638889 830.553398,472.777778 C830.553398,477.916667 834.665049,481 838.776699,481 C842.88835,481 847,477.916667 847,472.777778 C847,468.666667 842.88835,464.555556 838.776699,464.555556 L838.776699,464.555556 Z" id="Shape" fill="#FAFAFA"></path>
            <g display="none" id="trail-path" transform="translate(271.000000, 54.000000)" stroke="#979797">
                <path d="M0.717020079,367.052836 C95.5987938,342.395686 96.7004213,229.826366 114.900758,153.330066 C118.673682,137.472405 120.181282,145.59363 128.886298,128.882197 C139.949109,107.644395 129.561481,73.8858309 117.016218,55.7225412 C98.1634476,28.4271137 43.9060863,49.6429963 27.7121282,20.5287484 C21.2222913,8.86101924 44.0239672,2.56081716 49.6076493,1.97248589 C72.2987149,-0.418385073 102.023684,-1.3580213 123.531221,7.99183803 C168.745036,27.6474036 172.662083,108.097818 164.333026,146.90193 C161.286636,161.094708 153.946904,174.639711 153.791495,189.15492 C153.530392,213.542103 185.981009,249.997364 159.460826,272.035983 C152.629303,277.713068 144.470357,281.569178 136.975122,286.335776" id="Path-4"></path>
            </g>
            <g display="none" id="camera-path" transform="translate(271.000000, 54.000000)" stroke="#979797">
                <path d="M0.717020079,367.052836 C95.5987938,342.395686 96.7004213,229.826366 114.900758,153.330066 C118.673682,137.472405 120.181282,145.59363 128.886298,128.882197 C139.949109,107.644395 129.561481,73.8858309 117.016218,55.7225412 C98.1634476,28.4271137 43.9060863,49.6429963 27.7121282,20.5287484 C21.2222913,8.86101924 44.0239672,2.56081716 49.6076493,1.97248589 C72.2987149,-0.418385073 102.023684,-1.3580213 123.531221,7.99183803 C168.745036,27.6474036 172.662083,108.097818 164.333026,146.90193 C161.286636,161.094708 153.946904,174.639711 153.791495,189.15492 C153.530392,213.542103 185.981009,249.997364 159.460826,272.035983 C152.629303,277.713068 144.470357,281.569178 136.975122,286.335776" id="Path-4"></path>
            </g>
            <g id="points" transform="translate(267.969136, 69.712522)" fill="#868E96" display="none">
                <circle id="Kathmandu" cx="5" cy="352" r="5"></circle>
                <circle id="Pokhara" cx="70" cy="298" r="5"></circle>
                <circle id="Ghandruk" cx="95.1569665" cy="250.380071" r="5"></circle>
                <circle id="Chomrung" cx="106" cy="210" r="5"></circle>
                <circle id="Bamboo" cx="155" cy="165" r="5"></circle>
                <circle id="Jhinu-Hot-Spring" cx="172" cy="231" r="5"></circle>
                <circle id="Syauli-Bazaar" cx="139" cy="270" r="5"></circle>
                <circle id="Dovan" cx="136.726631" cy="106.552028" r="5"></circle>
                <circle id="Machapuchare" cx="113.941799" cy="30.9620811" r="5"></circle>
                <circle id="ABC" cx="29" cy="5" r="5"></circle>
            </g>
        </g>
    </g>
</svg>